<svg width="32" height="32" viewBox="0 0 32 32" xmlns="http://www.w3.org/2000/svg">
  <style>
    /* Default: Light Mode */
    .brand-r { fill: #0F0F0F; }
    .brand-arrow { fill: #FF6700; }

    /* Dark Mode Override */
    @media (prefers-color-scheme: dark) {
      .brand-r { fill: #FFFFFF; }
    }
  </style>

  <!-- Orange Arrow/Chevron ">" -->
  <path class="brand-arrow" d="M18 8 L26 16 L18 24 L16 22 L22 16 L16 10 Z"/>

  <!-- Letter "R" -->
  <path class="brand-r" d="M6 8 L12 8 C14.2 8 16 9.8 16 12 C16 13.5 15.2 14.8 14 15.5 L17 24 L14 24 L11.5 16 L9 16 L9 24 L6 24 Z M9 11 L9 13.5 L12 13.5 C12.8 13.5 13.5 12.8 13.5 12 C13.5 11.2 12.8 10.5 12 10.5 L9 11 Z"/>
</svg>
